HIERARCHY
ROOT Hips
{
 OFFSET 0.000000 0.000000 0.000000
 CHANNELS 6 Xposition Yposition Zposition Yrotation Xrotation Zrotation
 JOINT Chest
 {
  OFFSET 0.000000 9.585900 0.002600
  CHANNELS 3 Yrotation Xrotation Zrotation
  JOINT Chest2
  {
   OFFSET 0.000000 9.601200 -0.005300
   CHANNELS 3 Yrotation Xrotation Zrotation
   JOINT Chest3
   {
    OFFSET 0.000000 9.561800 0.000000
    CHANNELS 3 Yrotation Xrotation Zrotation
    JOINT Chest4
    {
     OFFSET 0.000000 9.552100 0.000000
     CHANNELS 3 Yrotation Xrotation Zrotation
     JOINT Neck
     {
      OFFSET 0.000000 14.453000 0.000000
      CHANNELS 3 Yrotation Xrotation Zrotation
      JOINT Head
      {
       OFFSET 0.000000 8.936500 -0.011300
       CHANNELS 3 Yrotation Xrotation Zrotation
       End Site
       {
        OFFSET 0.000000 17.073600 -0.006000
       }
      }
     }
     JOINT RightCollar
     {
      OFFSET -2.921100 9.558500 0.000000
      CHANNELS 3 Yrotation Xrotation Zrotation
      JOINT RightShoulder
      {
       OFFSET -13.519700 0.000000 0.000000
       CHANNELS 3 Yrotation Xrotation Zrotation
       JOINT RightElbow
       {
        OFFSET 0.000000 -29.696600 0.000000
        CHANNELS 3 Yrotation Xrotation Zrotation
        JOINT RightWrist
        {
         OFFSET 0.000000 -24.004700 0.000000
         CHANNELS 3 Yrotation Xrotation Zrotation
         End Site
         {
          OFFSET 0.000000 -17.728500 0.000000
         }
        }
       }
      }
     }
     JOINT LeftCollar
     {
      OFFSET 2.921100 9.558500 0.000000
      CHANNELS 3 Yrotation Xrotation Zrotation
      JOINT LeftShoulder
      {
       OFFSET 13.519700 0.000000 0.000000
       CHANNELS 3 Yrotation Xrotation Zrotation
       JOINT LeftElbow
       {
        OFFSET 0.000000 -29.696600 0.000000
        CHANNELS 3 Yrotation Xrotation Zrotation
        JOINT LeftWrist
        {
         OFFSET 0.000000 -24.004700 0.000000
         CHANNELS 3 Yrotation Xrotation Zrotation
         End Site
         {
          OFFSET 0.000000 -17.728500 0.000000
         }
        }
       }
      }
     }
    }
   }
  }
 }
 JOINT RightHip
 {
  OFFSET -7.771700 -0.012900 -0.001300
  CHANNELS 3 Yrotation Xrotation Zrotation
  JOINT RightKnee
  {
   OFFSET 0.000000 -40.869800 0.001200
   CHANNELS 3 Yrotation Xrotation Zrotation
   JOINT RightAnkle
   {
    OFFSET 0.000000 -39.717900 0.002100
    CHANNELS 3 Yrotation Xrotation Zrotation
    JOINT RightToe
    {
     OFFSET 0.000000 -4.965400 11.033500
     CHANNELS 3 Yrotation Xrotation Zrotation
     End Site
     {
      OFFSET 0.000000 -1.423100 5.872300
     }
    }
   }
  }
 }
 JOINT LeftHip
 {
  OFFSET 7.771700 -0.012900 -0.001300
  CHANNELS 3 Yrotation Xrotation Zrotation
  JOINT LeftKnee
  {
   OFFSET 0.000000 -40.869800 0.001200
   CHANNELS 3 Yrotation Xrotation Zrotation
   JOINT LeftAnkle
   {
    OFFSET 0.000000 -39.717900 0.002100
    CHANNELS 3 Yrotation Xrotation Zrotation
    JOINT LeftToe
    {
     OFFSET 0.000000 -4.965400 11.033500
     CHANNELS 3 Yrotation Xrotation Zrotation
     End Site
     {
      OFFSET 0.000000 -1.423100 5.872300
     }
    }
   }
  }
 }
}
MOTION
Frames: 9
Frame Time: 0.008333
3.204327 49.595151 42.820814 174.370418 -32.193281 -7.391917 5.521170 18.175282 6.359498 0.585190 2.241398 0.588622 1.005186 3.609669 0.964383 4.744496 15.843324 4.815838 -1.144892 15.930374 1.202102 -2.566836 -6.003511 2.713243 -3.061627 -3.264312 -4.238791 8.344730 -4.876603 3.951982 51.697515 -70.479729 -69.272427 0.997565 -10.399213 6.626323 -10.003486 -0.726791 -0.289316 4.063252 -4.101775 -1.725472 -129.032939 -78.715819 141.655530 12.972911 5.860322 -17.034953 1.091624 -49.198757 9.896550 -76.887917 83.188490 -65.331926 -2.023673 -7.024729 -3.517874 -0.196856 0.627516 -0.102884 -11.157287 -52.480255 17.180357 -146.339412 83.734213 -153.935315 -0.428409 -12.438420 7.327706 -0.115711 -0.627336 0.006665
3.204817 49.629649 42.818043 174.362346 -32.181975 -7.380307 5.499797 18.210920 6.354724 0.589911 2.238603 0.585985 0.996590 3.645028 0.969942 4.750879 15.867255 4.814066 -1.119364 15.977064 1.233809 -2.525698 -6.004662 2.726259 -3.046138 -3.352153 -4.265953 8.302382 -4.831504 3.871218 51.800234 -70.556366 -69.317489 1.036446 -10.203642 6.825224 -10.019302 -0.781713 -0.287843 4.120209 -4.130282 -1.739555 -127.626609 -78.475950 140.367395 12.626496 6.112496 -17.724380 0.961184 -49.177938 9.959032 -76.669270 83.244209 -65.168100 -2.037065 -7.103732 -3.582126 -0.186074 0.657391 -0.085452 -11.151990 -52.478788 17.184352 -146.288489 83.744881 -153.895042 -0.430567 -12.419242 7.323035 -0.118434 -0.649515 0.010177
3.207689 49.659140 42.815688 174.354485 -32.167378 -7.376208 5.489193 18.239854 6.361072 0.601252 2.209595 0.576375 0.977241 3.699579 0.982826 4.760208 15.891227 4.808918 -1.095158 16.020307 1.262594 -2.487147 -6.005542 2.739014 -3.049841 -3.418928 -4.292635 8.253403 -4.795491 3.794964 51.993287 -70.647606 -69.465981 1.072430 -9.962259 7.095253 -10.014654 -0.857343 -0.290292 4.139971 -4.140725 -1.743856 -126.148073 -78.212614 139.019374 12.248747 6.389043 -18.468799 0.905464 -49.180534 9.987313 -76.612745 83.279401 -65.124103 -2.047631 -7.164819 -3.635666 -0.175226 0.669594 -0.065427 -11.171699 -52.480952 17.215481 -146.189796 83.746955 -153.814677 -0.428963 -12.409143 7.318600 -0.117219 -0.668650 0.005161
3.210503 49.682942 42.815099 174.331488 -32.139610 -7.358207 5.491809 18.254741 6.360226 0.601109 2.216993 0.579501 0.979010 3.712769 0.983794 4.756975 15.914335 4.800399 -1.077383 15.986574 1.262667 -2.446251 -5.938161 2.770716 -3.063323 -3.455332 -4.342950 8.197485 -4.780465 3.750792 52.175104 -70.746293 -69.586345 1.140795 -9.706047 7.374828 -10.081722 -0.829081 -0.255744 4.249927 -4.238164 -1.778186 -124.738929 -77.919256 137.737616 11.842834 6.690681 -19.268304 0.866202 -49.198104 10.014911 -76.561368 83.296849 -65.102718 -2.033583 -7.245031 -3.654464 -0.188897 0.705992 -0.065158 -11.181128 -52.499788 17.243975 -146.113284 83.749200 -153.757950 -0.430561 -12.406018 7.317176 -0.106535 -0.686244 -0.011755
3.213942 49.704247 42.812567 174.327248 -32.122887 -7.347083 5.484854 18.261057 6.353071 0.595025 2.245020 0.584696 0.979761 3.724340 0.983996 4.753683 15.935184 4.797133 -1.052063 16.017936 1.282588 -2.409393 -5.948566 2.778473 -3.051870 -3.511063 -4.387277 8.116554 -4.732272 3.713321 52.437709 -70.843498 -69.788294 1.241131 -9.408852 7.674427 -10.101714 -0.864945 -0.242735 4.302807 -4.259325 -1.773592 -123.378203 -77.593893 136.533514 11.403483 7.018595 -20.138614 0.750392 -49.204596 10.074996 -76.537825 83.335798 -65.130573 -2.051294 -7.286756 -3.687621 -0.178467 0.696401 -0.064769 -11.173627 -52.513756 17.238627 -146.120508 83.753770 -153.764810 -0.429473 -12.405685 7.312353 -0.109870 -0.693705 -0.019502
3.218030 49.723501 42.808882 174.335605 -32.113505 -7.341194 5.468016 18.276672 6.345559 0.588496 2.273517 0.590733 0.970178 3.794692 0.999791 4.761203 15.857192 4.763433 -1.036373 16.082321 1.309865 -2.375580 -5.964259 2.780422 -3.037100 -3.527934 -4.431019 8.027551 -4.675883 3.691071 52.794114 -70.935478 -70.090056 1.375039 -9.063357 7.986402 -10.122332 -0.876771 -0.232515 4.332119 -4.279052 -1.781375 -121.862239 -77.219178 135.202647 10.924899 7.365643 -21.093328 0.649167 -49.206894 10.109916 -76.649857 83.371657 -65.255974 -2.088317 -7.333492 -3.751278 -0.131799 0.682534 -0.047653 -11.170584 -52.521947 17.228132 -146.066567 83.751923 -153.710897 -0.416994 -12.408436 7.306341 -0.119431 -0.698344 -0.025258
3.222449 49.738380 42.809177 174.329562 -32.079014 -7.328170 5.452561 18.339764 6.353055 0.591098 2.271222 0.588602 0.974784 3.765938 0.988980 4.748470 15.896695 4.765853 -1.015783 16.063622 1.310158 -2.344990 -5.963519 2.784637 -3.000976 -3.617487 -4.475092 7.950421 -4.600908 3.659409 53.235354 -71.019411 -70.491942 1.541876 -8.664941 8.302023 -10.184044 -0.880750 -0.190461 4.388681 -4.349144 -1.818742 -120.373914 -76.796212 133.950801 10.404195 7.722622 -22.136340 0.577639 -49.239108 10.132869 -76.701622 83.394408 -65.326321 -2.086473 -7.371287 -3.777559 -0.121276 0.693725 -0.053950 -11.159669 -52.557696 17.222660 -146.172447 83.762943 -153.811985 -0.426695 -12.413517 7.291696 -0.131728 -0.694510 -0.021980
3.227852 49.752044 42.809754 174.311797 -32.046533 -7.311663 5.454006 18.358102 6.353312 0.586432 2.291163 0.592169 0.976911 3.761965 0.986184 4.731892 15.938614 4.767931 -0.996528 16.043060 1.308496 -2.319487 -5.965075 2.788296 -2.936251 -3.694699 -4.551780 7.860594 -4.542898 3.657080 53.738073 -71.095918 -70.973587 1.750743 -8.209975 8.615076 -10.198486 -0.935693 -0.171097 4.430837 -4.396492 -1.850888 -118.788913 -76.315657 132.579006 9.845445 8.081723 -23.257401 0.512625 -49.268748 10.143219 -76.701727 83.427600 -65.334632 -2.066613 -7.398899 -3.801093 -0.128274 0.698575 -0.074533 -11.127544 -52.597198 17.209953 -146.234132 83.764845 -153.858711 -0.430151 -12.417432 7.288499 -0.140301 -0.693799 -0.030179
3.235454 49.765810 42.809807 174.307496 -32.020365 -7.311994 5.448985 18.382936 6.366695 0.585398 2.298067 0.592567 0.975067 3.772794 0.986750 4.718418 15.963007 4.763749 -0.984049 16.042715 1.312273 -2.297764 -5.966034 2.790811 -2.872010 -3.755995 -4.623167 7.781619 -4.483687 3.652358 54.299924 -71.163061 -71.529538 2.005124 -7.690218 8.924532 -10.181503 -1.014618 -0.174323 4.415903 -4.402188 -1.844926 -117.285591 -75.796836 131.305285 9.267342 8.428355 -24.413805 0.489514 -49.289988 10.128232 -76.690014 83.448633 -65.291489 -2.047922 -7.431585 -3.834133 -0.132653 0.700102 -0.080471 -11.127706 -52.623627 17.223227 -146.355285 83.771946 -153.975720 -0.441776 -12.426575 7.290930 -0.154036 -0.687448 -0.041170
